# xmcd
#
# Track frame offsets: 
#        150
#        18707
#        40169
#        55222
#        71337
#        94102
#        112207
#        127362
#        147170
#        163137
#
# Disc length: 2394 seconds
#
# Revision: 2
# Processed by: cddbd v1.5.2PL0 Copyright (c) Steve Scherf et al.
# Submitted via: ExactAudioCopy v0.95b4
#
DISCID=9609580a
DTITLE=Группа ТОП и звезды - Ночь нежна
DYEAR=2005
DGENRE=Blues
TTITLE0=Пока звучит рок-н-ролл (поет Владимир Шахрин)
TTITLE1=Любовь - это дым (поет Вячеслав Бутусов)
TTITLE2=Пять минут (поет Евгений Горенбург)
TTITLE3=Дерево (поет Вадим Самойлов)
TTITLE4=Ночь нежна (поет Владимир Шахрин)
TTITLE5=Это просто слова (поет Вячеслав Бутусов)
TTITLE6=Голос в ночи (поет Михаил Симаков)
TTITLE7=Я только выключу свет (поет Максим Покровский)
TTITLE8=Зиганшн буги (поет Евгений Горенбург)
TTITLE9=Мы уходим в закат (поет Вадим Самойлов)
EXTD=
EXTT0=
EXTT1=
EXTT2=
EXTT3=
EXTT4=
EXTT5=
EXTT6=
EXTT7=
EXTT8=
EXTT9=
PLAYORDER=
